<svg xmlns="http://www.w3.org/2000/svg" fill="none" viewBox="0 0 48 48">
  <defs/>
  <path  d="M24 48H.8c-.6 0-.8-.1-.8-.8V.7C0 .1.2 0 .8 0h46.4c.7 0 .8.2.8.8v46.4c0 .7-.2.8-.8.8H24z"/>
  <path fill="#201A16" d="M33.3 26c.1.7-.5 1-1 1.1-.7.2-1.3.8-2.1.6-.2-.1-.5.2-.4.5v.6c-.4 0-.6-.3-.8-.4a9 9 0 011.6 2.3c.6 1 1.3 2 2.5 2.4 0-.3-.3-.4-.2-.7.4.1 1.2.8 1.2 1.2 0 .2 0 .4-.2.3-.6 0-1.2.3-1.8 0-1.4-.5-3-.8-4.4-1.4l-5.7-3c-2-1.1-4-2.3-6.2-3l-1.9-.2s-.3 0-.3-.2c-.1-.2 0-.3.2-.4.5-.3.8-.9 1.5-1 .3 0 .3-.5.4-.7.3-.9 1-1.5 1.4-2.2.6-.6 1-1.3.8-2.1 0-.6.4-1.3-.1-1.7-.8-.6-1-1.6-1.2-2.3-.4-1.2-1.4-2.2-1-3.6a5 5 0 00.5-2.2c0-.7.4-1.4.8-2 .1-.2 0-.7.5-.5 0 0 .2.1.2.3V8c0 .1 0 .3-.2.4v.2c-.1.1-.4.2-.2.4 0 0 .2.2.1 0l.1-.4.1-.1c.3-.2.5-.1.8-.2.7 0 .7 0 .4.7-.2.6.4.7.6 1 .3.6.8.2 1.1.4.3.2.3.4.3.7-.5.3-.4.7 0 1v.8c-.3.1-.7.2-.6.7a1 1 0 01-.4.2h-.2c-.3-.2-.3-.5-.6-.5h-.5-.2c-.2 0-.2-.4-.4-.2s0 .3.2.4c.3.2.5.4.2.8H18h-.3l.6.2c.2 0 .5 0 .6.3-.2.2-.4 0-.6 0-.1 0 0 .2 0 .1.4 0 .4 0 .3.3 0 .1-.2.3 0 .4h.2l-.3-.3.5-.4.2-.4.2-.2.2-.1.4-.2c.2 0 .3.6.7.3.2 0 .3 0 .4.3V15.5c-.1.5 0 .9.3 1.2 1 .8 1.8 1.6 3.2 1.5l.1.2c0 .2.2.4 0 .6 0 .1-.2.3 0 .5s.4.2.7.1c.3 0 .5-.3.8-.4.9-.6 1.4-.4 1.9.6l-.2.2c-1-.3-1.8.4-2.7.7l-.2.1.2.1c.4.3 1 .2 1.5.2-.4-.2-.4-.5-.1-.7.3-.3.8-.2 1 .2.4.4.2.8-.6 1.3.4.2.7.4 1.1.4.3 0 .6.2.6.6l-.2.2.2-.1.3-.9.2-.1c.7.4.7 1.2 0 1.6l-.8.3c-.2 0-.3.2-.3.4s.2.2.4.2h1c.2 0 .6 0 .6.3.1.4-.2.5-.4.6l-.8.4c.4.1.6.4.6.8l-.1.2c.1-.2.2-.3.1-.4 0-.3-.2-.6 0-.7.3 0 .4-.4.7-.4.3 0 .7 0 .6.4 0 .3 0 .5.3.6.4.5.8.2 1.2.2l.3-.3.2-.3.2-.1.3.1z"/>
  <path fill="#FEFEFE" d="M19.1 10.2c-.3-.2-.3-.6-.7-.6-.3 0-.2-.2 0-.3.1-.3 0-.6.5-.8h-1.4v-.1c0-.2.1-.3.3-.4.2-.2.6-.2.6-.7 0-.2-.2-.1-.4-.2-.1 0-.3-.3 0-.3.5 0 .5-.8 1-1 1.1-.8 2.1-1.6 3.7-1.7l3 .1c.3 0 .5.1.6.4v.3c.1.1 0 .3.2.4.2 0 0-.3.2-.4h.2c.4 0 .8 0 1.1.2l.3.2c.2.2 0 .4-.1.6L28 6l.2.4v.2l.1-.1c.9-.5 1.3-.4 2.2.4.5.8.4 1-.3 1.3-.3-.3-.1-.7-.5-.9h-.1.1c.2.2.4.4.3.7 0 .2 0 .2.2.2.4.3.5.7.8 1l.1 1 .4 1c.2.3.2.7 0 1-.3.2-.6 0-1 0-.4-.1-1-.5-1.5-.1l-.7.3.6-.3c.2 0 .3-.2.5-.1.2 0 .3.1.4.3 0 .2 0 .3-.2.4l-.7.4c-.4.2-.8.3-1.1 0-.4-.4-.3-.8-.1-1.2.2-.4.1-1 .4-1.3 0-.2-.1-.1-.2-.1-.3-.2-.6 0-.9.1-.3 0-.3.3-.5.4-.2.3-.5.4-.6 0-.2-.4-.4-.7-.4-1 0-.5-.2 0-.3-.1-.1 0-.2 0-.3-.2v-.2l.7-.7c0-.1.5-.4-.1-.4-.2 0-.4-.2-.5-.4.2.4.7.4.5 1-.2 0-.5 0-.6.3l-.1.1c-.2 0-.2.2-.3.3l-.5.6c-.2.2-.5.3-.6.6-.2.2-.4.3-.7.2-.3-.1-.4.2-.5.3 0 0-.1-.1-.1 0l.1.1.2.6c-.4.7-1.2 1-1.7.5-.1-.2-.1-.5-.4-.6-.7-.3.2-.7-.1-1 .2-.2.2.1.3 0h.1c0-.7-.3-1.1-.7-1.6-.1.3-.3.4-.5.6h-.3z"/>
  <path fill="#FCFCFC" d="M19.9 42.8l3-4h.1V44h-1c.4-1.1.1-2.3 0-3.5-.7 1.2-1.5 2.3-2.4 3.5l-2.2-3.3c0 1-.2 2.2 0 3.3h-.7c.3-1.8 0-3.5.2-5.5l3 4.3z"/>
  <path fill="#FCFBFC" d="M27.6 38.4c1.7 0 3 1.2 3 2.9 0 1.6-1.4 2.8-3.1 2.8-1.8 0-3-1.2-3-3 0-1.5 1.3-2.7 3.1-2.7z"/>
  <path fill="#FDFDFD" d="M32.1 13.7l1.2 2.2c.3.3.3.6 0 .8-.2.2-.5 0-.7-.2l-.2-.2c-.2-.2-.2-.7-.6-.5-.5.2-1 .3-1 1 0 .6-.2.7-.8.4-.4-.5-.8-.9-1.3-1l-.7-.6c-.1-.3-.1-.7-.3-1l.1-.3h1.6c.1 0 .5.3.5-.2v-.3c.2-.2.1-.6.5-.6.3 0 .3.5.3.8v.1l-.2.2h.1c.2-.4.3-.7.7-.4v-.1c-.2-.4-.6-.9 0-1.1.4-.2.6.3.8.6v.4z"/>
  <path fill="#FCFCFC" d="M37 38.7c-.3 1 0 2 0 2.9 0 1.8-.8 2.6-2.6 2.5-1.5 0-2.2-.8-2.3-2.2v-2.3c0-.4 0-.7-.2-1H33a10 10 0 000 4c0 .8.7 1.1 1.6 1.1.9 0 1.5-.3 1.6-1 .3-1.3.3-2.6 0-4 .3-.4.5-.4.8 0z"/>
  <path fill="#FBFBFB" d="M15.9 44c-.7.2-1.2 0-1.3-.8 0-.6-.5-.8-1-.7a3 3 0 01-.7 0c-.7-.1-1.2.1-1.3 1-.1.5-.5.6-1 .4 1-1.8 1.8-3.8 2.6-5.8 1 2 1.7 4 2.7 5.8z"/>
  <path fill="#FBFAFA" d="M41.7 39.6c-.3-.5-.8-.8-1.4-.8-.3 0-.7 0-.8.4-.1.4 0 .8.2 1l1.1.8 1 .7c.4.4.5.9.4 1.4-.2.5-.6.9-1.2 1h-1.2c-1-.1-1-.2-1-1.3.5.6 1 1 1.7 1 .4 0 .8 0 1-.5.1-.5 0-.8-.3-1.1L39.5 41c-.5-.4-1-.9-.7-1.6.3-.8 1-1 1.6-1 .5 0 1 0 1.5.5 0 .2.2.5-.2.7z"/>
  <path fill="#221E1B" d="M30 17c.4.3.7.5.7-.1 0-.7.2-1 .8-1.1.3 0 .4-.3.6-.5l.5 1c.1.2.4.5.7.3.3-.1 0-.4 0-.7.5.1.5.1.6.8 0 .3-.2.5-.4.5-.5 0-.5.3-.3.6l-.1.6c-.4.4 0 1-.2 1.4.2.1.2.2.1.4-.4.2-.6-.3-1-.4h-.3l-.1-.2c0-.3.2-.5.4-.7-.5.2-.3.6-.5 1-.7-.1-.4-.6-.5-1 0-.3 0-.6.4-.7l.9-.3c-.8-.5-1.2-.3-1.6.5l-.3.3c-.5-.5-.4-1.1-.3-1.6z"/>
  <path fill="#231E1B" d="M31.3 14c-.3-.2-.3-.2-.7.4-.1 0-.2 0-.1-.2 0-.3.1-.7-.3-1 0 .4-.1.7-.3 1h-.2c-.1-.3-.1-.6-.3-.8v-.2c0-.2 0 0 0 0H29a.4.4 0 01-.2-.2l.4-.3c.2-.1.5 0 .4-.3 0-.3-.3-.1-.5-.1h-.3v-.1c.6-.5 1.3-.3 1.9 0 .2 0 .3.2.6 0 .2-.2 0-.5 0-.7-.1-.4-.4-.7-.4-1.1l-.1-1.1c-.5-.2-.4-.7-.8-.9v-.2c.9-.2.5-.7.3-1.1v-.4c.5.2.6.6.6 1 0 1.3.3 2.4.8 3.6.1.3 0 .5 0 .8.1.4.3.6.6.8.4.3 0 .5-.2.8l-.5-.7c-.1-.2-.2-.4-.4-.3a1275 1275 0 000 1.2z"/>
  <path fill="#FAFAFA" d="M7.7 44H6.6c.1-1.8.2-3.6 0-5.5h3c.6 0 .4.3.5.7-.8-.3-1.5-.3-2.1-.3-.4 0-.6 0-.6.5s-.2 1.3.2 1.4c.6.3 1.3.3 2 0l.3-.1v.8c-.7-.3-1.4-.2-2-.2-.3 0-.5 0-.5.3 0 .7-.1 1.5.3 2.4z"/>
  <path fill="#221D1B" d="M28 5c-.5 0-.9.2-1.3 0-.2-.2-.5 0-.6-.4 0-.2-.2-.2-.4-.2-.8 0-1.6-.3-2.3-.1-1.1.1-2.3-.1-3.2.9-.3.3-.8.4-1.3.7-.3-.3 0-.4.2-.6a5.8 5.8 0 014.6-1.6c1.1.2 2.4 0 3.4.9.1.1.4.2.7.1.3 0 .2.2.1.4z"/>
  <path fill="#F9F9F8" d="M32.8 32.4c.2.3.6.5.7.8-.5.2-.8 0-1.1-.2a5.8 5.8 0 01-1.9-2c-.5-1-1.1-2-2-2.7 0-.1-.2-.2-.1-.4.5.1.9.6 1.3.9l1.3 1.7c.7.6 1.3 1.3 1.8 2z"/>
  <path fill="#FBFBFB" d="M10.2 33.5h.7c0 .5-.5 1.2 0 1.4.6.2 1.3.2 2 0 .3-.2 0-.9 0-1.4h.7c-.2 1-.2 2-.1 3 0 .2.2.5-.3.5-.3 0-.3-.2-.2-.4 0-1.3 0-1.3-1.2-1.3-1.1 0-1.1 0-1 1.2 0 .1.3.5-.2.5-.6 0-.3-.3-.3-.6l-.1-3z"/>
  <path fill="#F7F7F7" d="M5.8 34.1c-.1-.5 0-.7.5-.7h2.4c.6 0 .7.2.5.7-.2 0-.2-.2-.3-.2-.3-.2-.7-.4-1-.2-.3.1-.1.5-.1.7V37c-.5.2-.6 0-.5-.6v-2c0-.7-.4-.9-1-.5l-.5.3z"/>
  <path fill="#F8F8F8" d="M15.5 35.2c0 1.7.2 1.9 1.7 1.3.1.1 0 .4 0 .4H15c-.2 0 0-.2 0-.3V34l-.1-.6h2c.1 0 .3 0 .2.3 0 .3-.2 0-.3 0-1.4-.2-1.4-.2-1.3 1.2v.3z"/>
  <path fill="#211D1B" d="M34.2 21.7c.5.2.1.5.1.7 0 .9.3 1.7-.2 2.5-.2.2-.4.8-.8 1a.7.7 0 01-.1-.5v-.2c.2-.3.5-.6.6-1v-.4c-.9-.3-.5-.6-.2-1 .3-.3 0-.8.2-1.2.3-.4.3 0 .4.1z"/>
  <path fill="#24201D" d="M30.3 6.7V7c-.3-.1-.5-.7-1-.3-.2-.8-.6 0-.9 0h-.2l-.1-.1c0-.3-.2-.3-.3-.4-.2 0-.3-.2 0-.3H28l-.1-.1c.1-.2.3-.3.2-.6.4-.2.3.3.6.3.4.1.7.5 1.2.6.3.1.3.4.3.6z"/>
  <path fill="#201A16" d="M32.8 32.4a7.2 7.2 0 01-1.7-2h.3c.4.7 1 1.2 1.6 1.6.2.3-.2.3-.2.4z"/>
  <path fill="#221E1D" d="M34.2 21.7s-.1-.3-.3 0c-.7-.3-.8-.9-1-1.4v-.5c.4.1 1.3 1.5 1.3 2z"/>
  <path fill="#FDFCFA" d="M18.4 7.3c0 .2.2.3.3.4 0 .3-.8-.3-.5.4.1.1-.3 0-.4 0l-.1-.1c0-.3-.2-.3-.3-.3-.2 0-.1-.2 0-.3.3-.2.6.4 1 0z"/>
  <path fill="#E0DDDE" d="M15.5 35.2V35c.4.1 1 0 1.3.2v.2h-1.3z"/>
  <path fill="#878485" d="M37 38.7c-.2-.2-.4-.2-.7 0 0 0-.3-.2-.1-.2h1l-.1.2z"/>
  <path fill="#7B7779" d="M16.8 35.2v-.1c0-.2 0-.3.2-.3.3 0 .1.2.1.3 0 .3 0 .4-.3.1z"/>
  <path fill="#7D797A" d="M41.7 39.6c.3-.2.1-.5.2-.8.2.3.2.6 0 .9 0 .2-.1 0-.2-.1z"/>
  <path fill="#FDFDFC" d="M32.9 20.3c.4.4.5 1 1 1.3v.9c.2.5-.2.7-.7.8.3.2.8 0 .8.3 0 .6 0 1.2-.7 1.6h-.2v-.3c0-.8-.2-1.4-1-1.6.3.2.9.4.7 1.1 0 .4-.3.8-.8.8-.4 0-.8-.2-.9-.6.2.5.6.6 1.2.6.3-.1.6-.2.4.4l-.8.4c-.3 0-.5 0-.6.3l-.2.1c-.3 0-.8 0-.5-.6.1-.2.2-.4 0-.4s-.7-.3-.7.2c0 .7-.2.2-.4.1 0 .4.5.8 0 1.2-.2 0-.3 0-.2-.2.2-.9-.8-.6-1-1.2.6.2 1 0 1.3-.3.2 0 .4 0 .4-.3 0-.2-.3-.3-.5-.3l-1 .2c-.4 0-.8 0-.8-.4 0-.3 0-.9.8-.8.3.1.8-.1 1-.5 0-.4 0-.8-.3-1-.2-.1-.3-.1-.2.1 0 .3.2.7-.2 1-.2 0-.3-.1-.2-.3 0-.3-.2-.4-.4-.4-.7.1-1.1-.4-1.8-.5.5-.4 1.3-.3 1.2-1 0-.3-.2-.6-.6-.6-.3 0-.5 0-.5.5.2-.1.4-.3.6 0 0 .2-.2.3-.3.3-.7.2-1.3.3-1.9-.2 0-.1 0-.2.2-.2h.5-.4-.1c0-.2-.1-.3.1-.4.5 0 .8-.2 1.2-.4.5-.4 1-.1 1.6-.2-.1-.2 0-.3.2-.4.6-.2 1.1-.3 1.4.4.1 1 .1 1 1.4 1.3.1 0 0-.2 0 0-.7 0-1.3-.3-1.4-1.2v-.2l.4-.3c.3.1.4.3.5.4-.1-.4-.5-.7-.1-1.2.2-.3 0-.7.6-1 .5-.2 1.3-.4 1.6.1.1.2.2.5 0 .3-.5-.1-.6.2-1 .3-.1 0-.5-.1-.4.2.1.4-.4 1 .2 1.3 0-.1.1-.3.3-.2v.1c.3.1.2-.2.3-.2l.9.8z"/>
  <path fill="#FDFDFD" d="M27.2 27.9c0-.2 0-.5.2-.5l.3.3c1 1.4 2 2.8 2.8 4.4 0 .2.3.4 0 .7-.1.1-.3 0-.5-.2l-1.8-.7c-.8-.3-1.4-.8-1.8-1.5-.7-1.6-1.8-3-3-4.2-.5-.7-1-1.3-1.3-2.1 0-.3-.2-.5-.1-.8.1-.2.2-.4.5-.5.3 0 .4.2.5.5l.6 2c.4 0 .2-.3.2-.5l-.1-.8c-.1-.6-.3-1.3.7-1.5l.3-.4 1.8 2.7c.2.3.4.7.9.9.4 0 0 .4.3.7-1-.5-.9.1-1 .6l.2 1c.2.2.2 0 .3-.1zM22 28c-.7-1-1.3-1.8-2.3-2.3-.4-.2-1-.7-.8-1 .2-.8-.4-1-.7-1.4-.2-.3-.2-.7-.2-1.1 0-.6.2-.9.9-.8-.5 1-.5 1.4.6 2 2.6 1.6 3.9 4.2 5.7 6.4v.2c-.3.1-.5 0-.8-.1-1.1-.4-2.1-1-3.1-1.6-1.8-1-3.6-2-5.7-2.7.8-.2.7-1 1.2-1.3.4-.4.6-.4.8.2 0 .6.4 1 1 1.3l2.7 1.9c.1.2.3.4.7.3z"/>
  <path fill="#201B17" d="M22 11.3c.4.2 0-.4.2-.3.3 0 .5.2.8.1l.2-.1c0-.6.5-.5.7-.7.2 0 .2.1.2.2-.5 1-1.2 1.7-1.7 2.6.3-.2.4-.7 1-.5 0 .4-.3.9-.2 1.4l.4.4c.3 0 .3 0 .4-.3 0-.1 0-.2.2-.2 0 0 0-.1 0 0l.1-.1c-.2-.2-.6-.2-.6-.7l.2-.1c.5 0 1 .1 1.3.4.1.2.3.3.2.5-.2 1 0 1.8.5 2.6-.1.4-.4.3-.6.4-.5 0-.8.3-1 .6-.3.3-.6.3-1 .2-.4-.3-.9-.5-1.2-.9a1 1 0 01-.3-1c.3-1 .3-1-.7-1h-.2c0-.2-.1-.3-.3-.4v-.1-.4c-.1 0-.3 0-.4-.2.1-.3.1-.6.4-.8v-.2c.3.1.7.4.9-.2 0-.1.6 0 .7-.4.1-.2-.1-.4-.1-.6H22s-.1 0 0-.1z"/>
  <path fill="#FBFBFA" d="M20.9 14.7l.5-.1h.7c.2.3.1.6 0 .8-.4 1-.4 1 .5 1.7h.1c1 .7 1.1.7 1.9-.2.2-.2.4-.3.6-.1.2.1.2.3.2.5s.1.2.2.3l.5.5v.3c0 .2 0 .4-.2.5-.5 0-1-.4-1.4-.7-.3.2-.7.3-1 .2-.8-.5-1.7-.9-2.3-1.6l-.1-.3v-.7c-.1-.2 0-.4-.2-.5-.2-.2.1-.4 0-.6z"/>
  <path fill="#F9F9F8" d="M26 18.1l-.5-.4v-.5c.5-.1 1 .2 1.5.2l.8.1c.5.2 1 .4 1.1 1 .2.5-.3.7-.7 1l-.3.3c-.5-1-1-1-1.9-.3-.4.3-.9.5-1.4.2a.7.7 0 01-.4-.6c0-.3 0-.2.3-.2.2 0 0-.3 0-.4.2-.3.4 0 .5 0l.8.4c.2-.1.2-.3.2-.5l.1-.1.2-.1h-.2-.1z"/>
  <path fill="#EDECEB" d="M19.5 14.4h-.1c-.2 0-.3.2-.5.1-.3 0-.6 0-.9-.2.3-.5 0-.6-.3-.7-.2 0-.3-.2-.3-.5 0-.2.3-.4.5-.5.3 0 .1.3.2.5 0 .2.1-.1.2 0 .2.1.2.5.5.6h.2c.2.3.6.3.5.7z"/>
  <path fill="#EFEEED" d="M20.7 18.6c-.4 0-.8 0-1-.5.2-.3 1 .3 1-.5.3 0 .6.2.7.5.4.4-.3.2-.3.5h-.4z"/>
  <path fill="#EEEDEC" d="M18.8 10.7c.4 0 .4.7.9.7-.2.2-.3.5-.6.4-.3-.2-.8-.2-.8-.7 0-.1 0-.5.5-.4z"/>
  <path fill="#34312E" d="M19.3 10c0-.3.7-.2.1-.6l.2-.2.4.1c.3.5.9 1 .6 1.7-.2 0 0-.4-.3-.6-.4 0-.8 0-1-.4z"/>
  <path fill="#F1F1F0" d="M31 26.4l.1-.2c.2 0 .4-.2.5-.3.6-.2.9.1.8.8-.6-.5-.5.5-1 .4 0-.3 0-.5-.3-.7z"/>
  <path fill="#D9D8D6" d="M20.6 14.2v.2c-.2 0-.1.5-.4.4-.2-.1-.2-.5-.3-.7-.2 0-.5 0-.4-.5l.5-.1.3.1c.1.3.6-.1.6.4-.1 0-.4 0-.3.2z"/>
  <path fill="#393633" d="M32.4 26.7c.1-.3 0-.6-.3-.7-.2-.1-.4 0-.6.2-.1.3-.3 0-.4 0 0-.4.4-.5.7-.4.3 0 .6-.1.8-.3 0 0 .2 0 .2.2v.1c0 .2 0 .3-.2.4 0 .2 0 .4-.2.5z"/>
  <path fill="#EFEEED" d="M21 18.7c.4.2.3.5.1.8-.1.2-.4.2-.6.1-.2 0-.3-.3-.2-.6 0-.2.2-.1.3-.1.2.2.3-.1.4-.2z"/>
  <path fill="#BEBCBA" d="M20.3 13.6l-.3-.1c-.1-.2-.5-.3-.3-.6.2-.4.4 0 .6 0h.2c.2.4 0 .5-.2.7z"/>
  <path fill="#CDCBC9" d="M18.5 15.3c.2.3.6 0 .9.3-.2.3-.5.1-.8.2-.2.2-.5 0-.5-.1-.1-.3.2-.3.4-.4z"/>
  <path fill="#EBEBE9" d="M17.4 8.5c0 .3.4.6 0 .7-.2 0-.6 0-.6-.2-.1-.4.3-.4.5-.6h.1z"/>
  <path fill="#E9E4E0" d="M19.3 10c.4 0 .7.2 1 .5h-.8c-.3.2-.4 0-.4-.3l.2-.2z"/>
  <path fill="#3F3B38" d="M18.8 13.8c-.6 0-.4-.5-.5-.7h.7c.1.3.1.5-.2.7z"/>
  <path fill="#3B3835" d="M19.5 13.6c0 .4.3.3.4.5l-.4.3c-.1-.3-.6-.2-.6-.6.1-.2.3-.3.5-.1h.1z"/>
  <path fill="#2C2722" d="M25.8 18.9c-.5.2-.8-.4-1.3-.4v-.2c.5 0 1 .3 1.3.6z"/>
  <path fill="#E2E0E0" d="M20.1 15.7c0 .6-.4.9-.8 1.3 0-.6.4-1 .8-1.3z"/>
  <path fill="#F9F7F5" d="M19.3 12.4c0 .1 0 .2-.2.2s-.3 0-.3-.3c0-.1 0-.3.2-.3s.4.1.3.4z"/>
  <path fill="#DFDDDA" d="M18.5 15.3c.1-.5-.4-.2-.5-.5h.9c.1 0 .2 0 .2.2 0 .5-.5.1-.6.3z"/>
  <path fill="#F4F2EF" d="M21.2 16.4v.4c-.5-.6-.5-.7-.3-1.3l.1.2c0 .3 0 .5.2.7z"/>
  <path fill="#E5E4E2" d="M32.7 25.8v-.2c0-.3.2-.4.4-.4h.2c-.1.2 0 .6-.3.6H33h-.2z"/>
  <path fill="#DEDEDE" d="M20 19h-1.1c.5-.3.7-.3 1 0z"/>
  <path fill="#C1BEBC" d="M19.5 13.6c-.2 0-.4 0-.6.2h-.1c.2-.2.1-.5.2-.7l.5.5z"/>
  <path fill="#4B4948" d="M21 15.7l-.1-.2v-.2l.3-.1c.2.2 0 .4 0 .5h-.3z"/>
  <path fill="#959493" d="M23.8 24.7v.7c0 .1.1.3 0 .2-.2 0-.2-.1-.2-.3.3-.1 0-.4.2-.6z"/>
  <path fill="#E4E3E1" d="M28.5 23l.2.1v.1c-.2.1-.4.2-.6 0L28 23c.1-.2.4 0 .5 0z"/>
  <path fill="#94918F" d="M17.4 8.5c-.1-.3-.2-.5 0-.6h.3v.2c.1.2 0 .3-.3.4z"/>
  <path fill="#262522" d="M21 18.7c0 .2 0 .4-.3.5l-.1-.3.1-.3h.3v.1z"/>
  <path fill="#FAF9F6" d="M19 14.8h-.2c-.2-.3-.5 0-.8-.1 0-.2 0-.2.2-.3H19c.1.3 0 .4-.2.4z"/>
  <path fill="#CBC9C7" d="M18.2 14.5l-.1.2c-.3 0-.4-.1-.5-.3v-.2h.3c0 .2.3 0 .3.3z"/>
  <path fill="#33302E" d="M18.2 14.5l-.3-.2h.2c.2 0 .6-.2.9 0-.2.3-.5 0-.6.2h-.1z"/>
  <path fill="#DDDAD8" d="M25.1 20.8l-.2.2c-.2 0-.4-.2-.4-.6l.6.3v.1z"/>
  <path fill="#989593" d="M17.6 14.2v.2c-.2 0-.4 0-.6-.2h.6z"/>
  <path fill="#43413F" d="M29 22.2l-.5-.4c.3-.1.5 0 .6.2l-.1.2z"/>
  <path fill="#2C2927" d="M18.3 14.5c.2-.2.4 0 .6-.1h.5l-.2.2h-.9z"/>
  <path fill="#FCFAF7" d="M29.3 26.7l.2.1c-.1.2-.2.5-.4.3s0-.3.2-.4z"/>
  <path fill="#B8B5B1" d="M32.7 25.8h.2c0 .1.2.5-.3.3l.1-.3z"/>
  <path fill="#646363" d="M27.2 27.9v.5c-.3 0-.3-.2-.3-.4l.3-.1z"/>
  <path fill="#EDEBEB" d="M20.6 19.9c-.3 0-.5.2-.7-.2.3-.2.5 0 .7.2z"/>
  <path fill="#D6D3D0" d="M18.4 12.3l-.2.1c-.1 0-.2-.1-.2-.3 0-.1.1-.1.2 0 .1 0 .3 0 .2.2z"/>
  <path fill="#231F20" d="M33 25.8c.4 0 0-.4.3-.5v.6H33z"/>
  <path fill="#EEECEA" d="M19 14.6h.2l-.1.4-.2-.2.2-.2z"/>
  <path fill="#656361" d="M17.7 8l-.3-.1v-.3c.2.1.6-.1.3.3z"/>
  <path fill="#B9B5B3" d="M17.3 11.7v.2c-.2 0-.3 0-.3-.3v-.1l.3.2z"/>
  <path fill="#211C18" d="M28.8 13l.2.2c.1.1 0 .3 0 .4l.2.4c.1.2.3.3.2.5l-.9-.1c-.1-.1-.3 0-.3-.2s-.1 0-.2 0c-.2 0-.5-.1-.6.2v.2c.7.2.6.6.4 1h-.2c-.2 0-.3-.1-.5-.3l-.1.6-.4.3c-.2 0-.3.3-.5.3-.1 0-.2 0-.2-.2-.2-.4-.5-.7-.1-1.2.1-.2.5-.4.6-.7-.1.2-.3.3-.5.2-.2-.3-.1-.7-.2-1l-.4-.5c-.1-.2-.2-.4 0-.7.3-.6.1-1.4-.5-1.9-.1-.3 0-.5.3-.6l.4-.4.3.1c0 .3-.3.6-.1 1 .2.2.4.4.2.8.4 0 .3-.4.4-.5.2-.1.6.1.6-.4h.3c.2-.6.5 0 .7 0 .2 0 .4-.1.4.2l-.6 1.8c0 .2 0 .4.2.6.3.2.6 0 .9 0z"/>
  <path fill="#EFEEED" d="M25.1 10l-.3.6c-.2.6-.8 1-1 1.6l-.5.4c-.4 0-.4.3-.7.5-.2.2-.3.5-.7.5.6-1.2 1.4-2.1 2.1-3.1.1-.3.3-.4.5-.6l.1-.1h.3l.2.1z"/>
  <path fill="#312D2A" d="M29.3 8.4c0 .2 0 .4-.2.6-.2.1-.4.2-.6.1-.2 0 0-.3 0-.4 0-.2.1-.3 0-.4 0-.4.2-.6.5-.6s.3.4.3.7z"/>
  <path fill="#3C3937" d="M25.3 9c.1-.3 0-.4-.2-.5-.4 0-.4-.4-.3-.7.4.5.8.7 1.4.3-.1.5-.4.7-.7.9h-.2z"/>
  <path fill="#5B5956" d="M26.5 5c.1 0 .3.1.3.3-.3 0-.3.4-.4.3-.2-.1-.4-.4-.3-.7h.4z"/>
  <path fill="#555251" d="M25.3 9h.2l-.6.6v-.2c-.2-.4 0-.7.4-.4z"/>
  <path fill="#3D3A37" d="M24.6 9.9c-.1.2-.3.5-.6.6v-.1c0-.4 0-.7.5-.7l.1.2z"/>
  <path fill="#24201D" d="M30 8.2v.2c-.1.1-.4.3-.3 0 .1-.4.1-.7-.1-.9 0 0-.1 0 0 0v-.1c.4 0 .4.4.5.8z"/>
  <path fill="#232120" d="M22.5 10c-.1 0-.4 0-.5-.2l1.1.1c0 .4-.4.2-.6.2z"/>
  <path fill="#302C2A" d="M23.2 8.9c.3-.1.5-.2.6 0l-.1.3c-.2 0-.4 0-.5-.3z"/>
  <path fill="#B8B5B3" d="M22 11.6c.2.1.5.2.2.5-.2-.1-.7-.2-.1-.5z"/>
  <path fill="#41403F" d="M24.4 5.8l-.9-.1c.3-.2.6-.2.9.1z"/>
  <path fill="#6B6967" d="M19.9 8l-.2.3c-.2 0-.3 0-.3-.2s.2-.2.3-.2c0 0 .2 0 .2.2z"/>
  <path fill="#ABABAA" d="M22.5 10c.2 0 .5.2.6 0 .2 0 .4 0 .1.2l-.7-.1z"/>
  <path fill="#8D8C8C" d="M25 5.3h-.6v-.2l.6.2z"/>
  <path fill="#211F1D" d="M28.8 12.1v.2c-.2.2-.4.3-.8.3l.8-.5z"/>
  <path fill="#322F2E" d="M28 9.7c0-.3.3-.3.5-.3v.2c-.1.2-.3.2-.5 0z"/>
  <path fill="#353431" d="M23.8 8.4v-.6c.3.2.3.4 0 .6z"/>
  <path fill="#24201D" d="M30.8 9.3c.3.3 0 .7.1 1-.3-.3 0-.7-.1-1z"/>
  <path fill="#B5B2AF" d="M26.9 10.5c.3 1-.5.1-.6.4l.6-.4z"/>
  <path fill="#6E6D6D" d="M21.2 9.7v.4l-.2-.3v-.4c.2 0 0 .3.2.3z"/>
  <path fill="#7E7D7C" d="M29.6 7.4v.1c-.3 0-.5 0-.6-.3.3-.1.4 0 .6.2z"/>
  <path fill="#EBE9E6" d="M26.5 5h-.4v-.4c.2.2.5 0 .6.3h-.2z"/>
  <path fill="#25211E" d="M24.6 9.9l-.1-.2c0-.1-.2-.2-.1-.4l.2.2c.2.1.1.2 0 .4z"/>
  <path fill="#2C2928" d="M28.2 10.6l-.3-.2c.2 0 .4-.2.6 0 0 0-.1.2-.3.2z"/>
  <path fill="#383635" d="M24.6 9.9v-.4H25v.2l-.3.2z"/>
  <path fill="#706F6E" d="M28 7.6c0 .2-.1.2-.2.2h-.2c0-.2.2-.2.3-.3h.1z"/>
  <path fill="#575654" d="M28 6.6l.2.1c0 .2-.3.4-.4.2-.2-.2.2-.2.3-.3z"/>
  <path fill="#575755" d="M19.2 6.4l-.1.2h-.3c0-.2.1-.2.2-.3l.2.1z"/>
  <path fill="#E8E5E2" d="M28 5.8l.5.1c-.3.2-.5.1-.7 0l.2-.1z"/>
  <path fill="#62605F" d="M22 11.3v.2c-.2 0-.4 0-.5-.2.2-.2.3 0 .4 0z"/>
  <path fill="#3B3937" d="M21.2 9.7l-.3-.3c0-.1.1-.2.2-.1.2 0 .1.3 0 .4z"/>
  <path  d="M27.5 38.8c1.4 0 2.3 1.2 2.2 2.7 0 1.4-.9 2.3-2.1 2.2-1.4 0-2.3-1-2.3-2.7.1-1.4 1-2.3 2.2-2.2z"/>
  <path fill="#201B17" d="M27.6 15.6h.5c.2.2.4.4.7.4.6.1 1 .5 1.3 1 .2.6 0 1.1.3 1.6 0 .6.2 1.2.5 1.7-.5 0-.6-.5-.9-.8l-.2-.3v.6h-.3c-.3-.6-.8-.3-1.3-.3 0-.2 0-.3.2-.5.6-.3.5-.7 0-1-.5-.4-1-.1-1.3-.5.2-.2.3-.5.3-.8v-.4l-.1-.3c0-.2.2-.3.3-.4z"/>
  <path fill="#241F1C" d="M28 15.6h-.2c0-.5-.2-.8-.6-1v-.2c.3-.2.4 0 .6.1.4.3.2.7.3 1z"/>
  <path fill="#E4E3E2" d="M27.8 14.5l-.6-.1c.1-.8.5-.5.9-.3 0 .3-.3.1-.3.3v.1z"/>
  <path fill="#979594" d="M29.4 14.5L29 14l.3-.1c.2 0 .3 0 .4.2l.2.1c0 .3-.2.4-.5.3z"/>
  <path fill="#363432" d="M27.8 14.4c-.1-.3.3-.1.3-.3.3-.1.3.2.4.3h-.7z"/>
  <path fill="#5E5D5C" d="M31.3 14l.1-.2c.2.1.2.3.2.6-.3 0-.4-.2-.3-.5z"/>
  <path fill="#5F5E5D" d="M30.5 14.2l.1.2c0 .2-.1.3-.3.4 0-.3 0-.4.2-.6z"/>
  <path fill="#776763" d="M13.1 39.6a99.6 99.6 0 001 2.5h-2l1-2.5z"/>
  <path fill="#EBEAE8" d="M31.7 19.6l-.3.2c0-.5-.1-1.2.7-1.2l.3.1c0 .2-.1.3-.2.3-.5 0-.5.3-.5.6z"/>
  <path fill="#EEEEEC" d="M31.6 16c.2 0 .4.1.4.3-.1.3-.6.3-.8.5 0 0-.2 0-.2-.2 0-.3.3-.5.6-.6z"/>
  <path fill="#605F5D" d="M32 19.5v.5c-.2 0-.2-.1-.3-.2.1-.1 0-.3.3-.3z"/>
  <path fill="#D1CFCE" d="M29.7 14h-.5c-.3-.3 0-.4.1-.6h.1c.5 0 .3.4.3.7z"/>
  <path fill="#E9E7E5" d="M29 13.6c-.7-.1.1-.3 0-.4l.3-.2c.1 0 .3-.1.3.2l-.2.1c-.1.1-.2.3-.4.3z"/>
  <path fill="#C3BFBC" d="M29.6 13.2c0-.2-.2-.1-.3-.2.2-.2.4-.2.7 0 0 .2-.3.2-.4.2z"/>
  <path fill="#282421" d="M33.1 25.2l-.4.4-.1-.1s.3-.3 0-.3l-.7.1c-.8 0-1-.3-.7-1 .2.6.5.9 1 .7.3-.2.5-.4.5-.7 0-.4-.2-.5-.5-.7-.5-.3-.5-.3-.6-.8.8.6 2.2.8 1.5 2.4z"/>
  <path fill="#332F2C" d="M29.5 19.8h.2c0 1 1 1 1.8 1.3-.3.2-.5 0-.7 0-1.3 0-1.3 0-1.3-1.3z"/>
  <path fill="#2D2926" d="M31 22.5c-.2 0-.4-.6-.7 0l-.5-.3c-.1-.2 0-.4.2-.5.3-.2.5-.2.8 0 .3.1.3.5.3.8z"/>
  <path fill="#312D2B" d="M29.2 24c.4-.2.8-.2 1-.7.2-.2.5 0 .6.2.1.2 0 .3-.2.4-.5.5-1 0-1.4 0z"/>
  <path fill="#292726" d="M33 21.4l.4.5c0 .2 0 .3-.2.3-.5-.4-1-.3-1.4 0 .2-.4.5-.7 1-.8h.2z"/>
  <path fill="#363330" d="M29.1 21.4l-.9-.1c.4-.3.8-.6.6-1.3.3.5.3.5.3 1.4z"/>
  <path fill="#D0CDCB" d="M29.8 19.6c-.2-.3-.2-.5 0-.9l.2.8-.2.1z"/>
  <path fill="#373635" d="M25.1 20.8v-.1h1c-.3.2-.6.1-1 .1z"/>
  <path fill="#454342" d="M33.2 22.2l.1-.3c.3.3.2.5 0 .8l-.1-.5z"/>
  <path fill="#34302D" d="M33 21.4s-.2.2-.3 0l.1-.3c.2 0 .2.2.2.3z"/>
  <path fill="#F9F9F9" d="M23.6 12.1c.3-.6.7-1 1.2-1.5.3-.3.5-.3.6.2.2.4.1 1 .4 1.4.1 0 0 .3-.2.3-.6-.2-.2.3-.3.5l-.1.4H25c-.4-.1-.9 0-1.2-.3-.2-.1-.3-.3-.3-.5v-.5z"/>
  <path fill="#EFEEED" d="M23.6 12.1l.1.5v.6c.2.3.6.3.8.5.2.1.3.3.1.5-.3.2-.3-.2-.4-.3H24v.2c.2.2.3.6-.1.6-.3 0-.8 0-.9-.4 0-.6 0-1.2.3-1.7 0-.2.1-.4.3-.5z"/>
  <path fill="#F3F2F2" d="M25.8 13.5c.1.4.3.7 0 1 .2.2.1.4 0 .7-.4.4.2.7.2 1.1-.1.2 0 .4-.3.4-.5-.9-.7-1.8-.5-2.8l-.1-.4c.2-.2.5-.1.7 0z"/>
  <path fill="#322D2A" d="M25.7 16.7c.2 0 .2-.3.3-.4l.1.2c.2.5.7.6 1 1-.6.2-1 0-1.5-.2-.2 0-.1.2-.2.2-.2-.2 0-.5-.1-.7l.4-.1z"/>
  <path fill="#E9E7E5" d="M22.7 15.5c-.1-.5-.2-1-.8-1.2.5-.3.7 0 .9.2.2.3.4.6-.1 1z"/>
  <path fill="#F0F0EE" d="M23.3 16.4c0-.2-.2-.4.2-.4.2 0 .4.2.3.4-.1.2 0 .7-.3.7s-.2-.4-.2-.7z"/>
  <path fill="#5C5B59" d="M24 14c-.1 0-.4 0-.5-.3.3-.1.5 0 .7.2l-.2.2z"/>
  <path fill="#63615E" d="M20.6 14.2l-.2-.2h.5l-.3.2z"/>
  <path fill="#3D3836" d="M23.7 13.2c-.2-.2-.3-.4 0-.6l.2.5h-.2z"/>
  <path fill="#2F2C2A" d="M26 18.1h.7v.2l-.7.1v-.3z"/>
  <path fill="#52504E" d="M21 15.7h.2v.7c-.1-.2-.3-.4-.3-.7z"/>
  <path fill="#201B17" d="M25.3 17.5c.2 0 0-.3.2-.2v.4l-.2-.2z"/>
  <path fill="#373432" d="M28 18.3l-.7.4c0-.5.3-.6.7-.4z"/>
  <path fill="#EDEDEC" d="M27 17.6l-.1-.2c-.7 0-.9-.3-.8-1 .2 0 0-.3.3-.3l.6.1c.3 0 .5.2.6.5 0 .4 0 .9-.6.9z"/>
  <path fill="#D4D2D0" d="M25.8 15.1v-.6c.4-.1.4-.1.7-.7.3.8-.2 1-.7 1.3z"/>
  <path fill="#241F1C" d="M27.6 15.6l-.3.4c-.2.2-.3 0-.4-.1 0-.3 0-.7.3-1 0 .3.2.5.4.7z"/>
  <path fill="#CAC8C6" d="M26.9 15.9h.4l.2.3c-.2.2-.4 0-.6.1-.3.2-.5.1-.5-.2l.5-.2z"/>
  <path fill="#6A6969" d="M25.8 13.5h-.7l.2-.5c.1.2.5.3.5.5z"/>
  <path fill="#2A2827" d="M29 13.6c.1-.1.2-.3.4-.3 0 .3-.6.3-.2.7H29v-.4z"/>
  <path fill="#696867" d="M26.9 16.3c.1-.2.4 0 .6-.1 0 .1.2.3.1.5l-.7-.4z"/>
</svg>